PathFileType	4	(X/Y/Z)	E:\MAC3D_DATA\2020_06_02_vinay\TPose1.trc																																																																
DataRate	CameraRate	NumFrames	NumMarkers	Units	OrigDataRate	OrigDataStartFrame	OrigNumFrames																																																												
1000	200	7	22	mm	200	187	498																																																												
Frame#	Time	RAsis			LAsis			RPsi			LPsi			RThigh1			RThigh2			RThigh3			RKneeOut			RKneeIn			LThigh1			LThigh2			LThigh3			LKneeOut			LKneeIn			MidAsis			MidPsi			MidPelvis			RHJC			LHJC			MidHJC			RKJC			LKJC		
		X1	Y1	Z1	X2	Y2	Z2	X3	Y3	Z3	X4	Y4	Z4	X5	Y5	Z5	X6	Y6	Z6	X7	Y7	Z7	X8	Y8	Z8	X9	Y9	Z9	X10	Y10	Z10	X11	Y11	Z11	X12	Y12	Z12	X13	Y13	Z13	X14	Y14	Z14	X15	Y15	Z15	X16	Y16	Z16	X17	Y17	Z17	X18	Y18	Z18	X19	Y19	Z19	X20	Y20	Z20	X21	Y21	Z21	X22	Y22	Z22
																																																																			
187	0.93	86.423	1582.6	197.291	87.1856	1583.2	-76.804	209.015	1530.7	60.8224	62.8108	1602.91	56.9453	9.22922	1487.84	63.7391	239.907	1026.1	194.13	250.526	1031.41	-47.9499	52.2734	1070.02	115.822	52.3647	1066.78	20.8863	170.711	765.869	269.767	101.486	708.003	277.22	186.053	709.004	248.295	107.698	541.516	272.029	98.8225	525.039	160.837	192.182	778.109	-134.735	129.777	785.902	-146.756	142.68	714.808	-148.568	128.01	544.173	-145.147	106.374	526.232	-33.0164	21.7015	348.229	301.311	-0.881534	287.547	275.003	71.8803	316.207	292.275
188	0.935	86.3626	1582.61	197.275	87.1131	1583.23	-76.8137	208.983	1530.72	60.7989	62.7223	1602.93	56.9706	9.17963	1487.83	63.7345	239.931	1026.11	194.113	250.537	1031.43	-47.9666	52.3281	1070	115.855	52.3406	1066.79	20.8814	170.7	765.874	269.796	101.487	708.019	277.228	186.061	709.026	248.317	107.696	541.517	272.039	98.679	524.936	160.918	192.17	778.109	-134.744	129.806	785.961	-146.839	142.696	714.841	-148.51	128.007	544.161	-145.164	106.401	526.231	-33.0465	21.6993	348.229	301.317	-0.868195	287.526	274.976	71.8892	316.202	292.308
189	0.94	86.3383	1582.61	197.22	87.0696	1583.21	-76.8414	208.945	1530.74	60.7686	62.6464	1602.92	56.928	9.1788	1487.72	63.7792	239.905	1026.12	194.128	250.538	1031.43	-47.9631	52.3011	1070.02	115.828	52.3711	1066.78	20.918	170.703	765.886	269.602	101.494	708.012	277.251	186.047	709.004	248.326	107.63	541.365	271.859	98.671	524.95	160.918	192.16	778.113	-134.735	129.781	785.907	-146.753	142.625	714.838	-148.597	128.003	544.174	-145.136	106.365	526.221	-33.0272	21.6949	348.247	301.318	-0.87011	287.506	275.003	71.8996	316.213	292.317
190	0.945	86.2892	1582.64	197.217	86.9978	1583.21	-76.8467	208.892	1530.78	60.7646	62.6012	1602.91	56.9335	9.17007	1487.69	63.7825	239.941	1026.1	194.14	250.532	1031.42	-47.9435	52.3039	1070.02	115.906	52.3712	1066.79	20.9123	170.722	765.9	269.837	101.536	708.029	277.193	186.066	709.047	248.356	107.701	541.494	272.086	98.8451	524.984	160.843	192.174	778.117	-134.716	129.727	785.906	-146.754	142.658	714.834	-148.475	127.989	544.18	-145.119	106.413	526.224	-33.0029	21.7204	348.267	301.318	-0.850878	287.516	274.996	71.9161	316.206	292.318
191	0.95	86.2169	1582.65	197.187	86.9376	1583.21	-76.8594	208.826	1530.79	60.7357	62.552	1602.91	56.9283	9.08768	1487.8	63.7012	239.939	1026.12	194.126	250.546	1031.44	-47.9623	52.2999	1070.06	115.872	52.3652	1066.78	20.9169	170.712	765.907	269.865	101.519	708.005	277.249	186.09	709.025	248.372	107.703	541.502	272.067	98.7743	524.947	160.921	192.174	778.121	-134.72	129.783	785.922	-146.765	142.663	714.818	-148.446	128.011	544.166	-145.132	106.426	526.216	-33.019	21.7268	348.245	301.317	-0.853824	287.494	274.977	71.9109	316.243	292.341
192	0.955	86.1741	1582.65	197.165	86.8535	1583.2	-76.8877	208.773	1530.83	60.7044	62.4827	1602.9	56.8766	9.0461	1487.78	63.6901	239.932	1026.14	194.134	250.5	1031.43	-47.9512	52.3002	1070.02	115.886	52.3453	1066.79	20.9284	170.706	765.898	269.633	101.557	708.032	277.219	186.092	709.036	248.415	107.743	541.506	272.044	98.8527	524.983	160.837	192.158	778.111	-134.736	129.741	785.932	-146.738	142.648	714.842	-148.498	128.029	544.185	-145.151	106.396	526.246	-33.0105	21.7292	348.262	301.328	-1.15182	287.52	274.982	71.9056	316.212	292.331
193	0.96	86.112	1582.68	197.154	86.8108	1583.2	-76.9359	208.686	1530.85	60.6785	62.4289	1602.89	56.8803	8.98347	1487.62	63.7764	239.944	1026.14	194.154	250.523	1031.47	-47.9701	52.3078	1070.02	115.889	52.3638	1066.77	20.9424	170.711	765.878	269.725	101.544	708.02	277.289	186.096	709.054	248.397	107.755	541.511	272.066	98.6912	524.874	160.941	192.14	778.102	-134.71	129.719	785.91	-146.756	142.612	714.85	-148.596	128.021	544.192	-145.156	106.384	526.225	-33.0026	21.7311	348.238	301.327	-0.871044	287.525	274.981	71.9131	316.208	292.304
